<svg height="16" viewBox="0 0 24 16" width="24" xmlns="http://www.w3.org/2000/svg"><g fill="none" fill-rule="evenodd"><path d="m0-4h24v24h-24z"/><g><path d="m22.2025781.00004688h-20.40515623c-.99271874 0-1.79742187.80470312-1.79742187 1.79742187v12.12932815c0 .9926718.80470313 1.7974218 1.79742187 1.7974218h20.40515623c.9926719 0 1.7974219-.8047031 1.7974219-1.7974218v-12.12932815c0-.99271875-.8047031-1.79742187-1.7974219-1.79742187" fill="#394084"/><path d="m23.9751094 1.50032813c-.1416563-.85120313-.8811094-1.50032813-1.7725313-1.50032813h-.4676718l-7.6659375 5.02251562v-5.02251562h-4.13793755v5.0225625l-7.6659375-5.0225625h-.46767188c-.89142187 0-1.63087499.649125-1.77253124 1.500375l6.55209375 4.2928125h-6.57698438v4.1379375h6.57698438l-6.55209375 4.2927187c.14165625.8512032.88110937 1.5003282 1.77253124 1.5003282h.46767188l7.6659375-5.0225157v5.0225157h4.13793755v-5.0225157l7.6659375 5.0225157h.4676718c.8914219 0 1.630875-.6490782 1.7725313-1.5003282l-6.5520938-4.29281245h6.5769844v-4.1379375h-6.5769844z" fill="#f8f7f5"/><g fill="#de4a53"><path d="m13.2413906.00004688h-2.4827812v6.62067187h-10.7586094v2.48278125h10.7586094v6.6206719h2.4827812v-6.6206719h10.7586094v-2.48278125h-10.7586094z"/><path d="m1.16217187 15.6082969 8.74607813-5.67721878h-1.5200625l-7.9558125 5.16431248c.19467188.2272031.44484375.4052344.72979687.5129063"/><path d="m16.2369375 9.93107812h-1.5200625l8.4710625 5.49867188c.2370469-.1556719.4348594-.3659531.5759531-.6128906z"/><path d="m.18979688.99375 7.39359374 4.79939063h1.5200625l-8.37806249-5.4384375c-.22495313.1674375-.40903125.38634375-.53559375.63904687"/><path d="m15.5890312 5.79314062 7.9703907-5.17382812c-.1968281-.22645312-.4489688-.40345312-.7358907-.5090625l-8.7545625 5.68289062z"/></g></g></g></svg>