<svg width="24" height="24" viewBox="0 0 24 24" fill="none" xmlns="http://www.w3.org/2000/svg">
<mask id="mask0" mask-type="alpha" maskUnits="userSpaceOnUse" x="0" y="4" width="24" height="16">
<rect y="4" width="24" height="16" rx="2" fill="#C4C4C4"/>
</mask>
<g mask="url(#mask0)">
<rect y="4" width="24" height="16" fill="#000E95"/>
<path fill-rule="evenodd" clip-rule="evenodd" d="M0.589752 3L-1 5.54414L9.20033 11.918L-1 18.2919L0.589767 20.836L12.0309 13.6868L23.4721 20.836L25.0619 18.2919L14.8616 11.918L25.0619 5.54414L23.4721 3L12.0309 10.1492L0.589752 3Z" fill="white"/>
<path fill-rule="evenodd" clip-rule="evenodd" d="M-0.000778198 3.88165L-0.530701 4.72971L11.0874 11.9895L-0.530701 19.2493L-0.000778198 20.0974L12.031 12.5791L24.0627 20.0974L24.5926 19.2493L12.9745 11.9895L24.5926 4.72971L24.0627 3.88165L12.031 11.3999L-0.000778198 3.88165Z" fill="#C30000"/>
<path fill-rule="evenodd" clip-rule="evenodd" d="M14 4H10V10H0V14H10V20H14V14H24V10H14V4Z" fill="white"/>
<path fill-rule="evenodd" clip-rule="evenodd" d="M13 4H11V11H0V13H11V20H13V13H24V11H13V4Z" fill="#C30000"/>
</g>
</svg>
