<svg height="24" viewBox="0 0 24 24" width="24" xmlns="http://www.w3.org/2000/svg" xmlns:xlink="http://www.w3.org/1999/xlink"><defs><path id="a" d="m11.6861267 2c1.0800171 0 1.9770813.79879762 2.1313477 1.83670043l1.9747924 1.41052246c.1539612.11001586.2453614.28747559.2453614.47683719 0 .18920898-.0914002.36666867-.2453614.47668453l-1.9512939 1.39373781v2.56439208h6.0041809c1.1882019 0 2.1548462.9666443 2.1548462 2.1549988v7.5311279c0 1.1882019-.9666443 2.1549988-2.1548462 2.1549988h-7.5312805c-1.0800171 0-1.9770813-.7987976-2.1313477-1.8367004l-1.97479244-1.4105225c-.15396121-.1098633-.24536132-.2874756-.24536132-.4766846 0-.1892089.09140011-.3668213.24536132-.4768371l1.95129394-1.3937378v-2.5643921h-6.00402831c-1.18835449 0-2.15499879-.9666443-2.15499879-2.1548462v-7.53128051c0-1.18835449.9666443-2.15499879 2.15499879-2.15499879zm8.1590271 9.3307495h-7.5312805c-.5419922 0-.9829712.440979-.9829712.9831238v4.3931579c0 .189209-.0914001.3668213-.2453613.4768372l-1.5290833 1.0922241 1.5290833 1.0922241c.1539612.1098633.2453613.2874756.2453613.4766846 0 .5421448.440979.9831238.9829712.9831238h7.5312805c.5419922 0 .9829712-.440979.9829712-.9831238v-7.5311279c0-.5421448-.440979-.9831238-.9829712-.9831238zm-3.7687683 2.4357605c.2384949 0 .4707336.0880432.5271911.2763367l1.2113953 3.9477539c.0062561.0250244.0125122.0439453.0125122.0627136 0 .1947022-.2949524.3388977-.5146789.3388977-.1380921 0-.244751-.0437927-.2760315-.1631164l-.2386475-.8348084h-1.4373779l-.2383423.8348084c-.0314331.1193237-.138092.1631164-.2761841.1631164-.2197265 0-.5146789-.1379394-.5146789-.3388977 0-.0125122.0062561-.0375366.0125122-.0627136l1.2113952-3.9477539c.0564576-.1882935.2886963-.2763367.5209351-.2763367zm-.0001526 1.060791-.5459595 1.9267273h1.0922242zm-4.3901062-11.655426h-7.53112791c-.54214481 0-.98312379.44097898-.98312379.98297117v7.53128053c0 .5421448.44097898.9831238.98312379.9831238h6.00402831v-.3555298c0-1.1882019.9666443-2.1548462 2.1548462-2.1548462h.3552246v-2.86590575c0-.18920898.0914001-.36682129.2453613-.47683715l1.5290833-1.09222414-1.5290833-1.0922241c-.1539612-.10986328-.2453613-.28747559-.2453613-.47683719 0-.54199219-.440979-.98297117-.9829712-.98297117zm-3.76571654 2.43576051c.18249511 0 .33050539.14801023.33050539.33050535v.80230715h1.46987914c.1823425 0 .33035281.14801023.33035281.33050535s-.14801031.33050539-.33035281.33050539h-.45547485c-.07278445.69778441-.37368777 1.32843016-.82626343 1.81686398.37521359.22491457.81344601.35430911 1.28173828.35430911.1823425 0 .33035281.14785765.33035281.33035277 0 .18249509-.14801031.33050539-.33035281.33050539-.66864016 0-1.28890992-.2090454-1.80038453-.5645752-.51132203.3555298-1.1315918.5645752-1.80023196.5645752-.1823425 0-.33035277-.1480103-.33035277-.33050539 0-.18249512.14801027-.33035277.33035277-.33035277.46829227 0 .90652469-.12969973 1.28173828-.35430911-.45257566-.48843382-.75347898-1.11907957-.82626339-1.81686398h-.45547489c-.1823425 0-.33035277-.14801027-.33035277-.33050539s.14801027-.33050535.33035277-.33050535h1.46987918v-.80230715c0-.18249512.14801024-.33050535.33035278-.33050535zm.67901609 1.79382324h-1.35787961c.07186891.54153441.31738281 1.02874754.67886352 1.40396117.36163328-.37521363.60714722-.86242676.67901609-1.40396117z"/><mask id="b" fill="#fff"><use fill="#fff" fill-rule="evenodd" xlink:href="#a"/></mask></defs><g fill="none" fill-rule="evenodd"><use fill="#000" fill-rule="nonzero" xlink:href="#a"/><g fill="#f9ae06" mask="url(#b)"><path d="m0 0h24v24h-24z"/></g></g></svg>