<svg width="208" height="162" viewBox="0 0 208 162" fill="none" xmlns="http://www.w3.org/2000/svg">
<rect width="208" height="162" rx="2" fill="#C1C1C1"/>
<rect x="4" y="12" width="200" height="142" fill="#F2F2F2"/>
<rect x="152" y="16" width="48" height="134" fill="#EBEBEB"/>
<rect x="8" y="16" width="136" height="134" fill="#EBEBEB"/>
<path opacity="0.4" fill-rule="evenodd" clip-rule="evenodd" d="M6 8C7.10457 8 8 7.10457 8 6C8 4.89543 7.10457 4 6 4C4.89543 4 4 4.89543 4 6C4 7.10457 4.89543 8 6 8ZM12 8C13.1046 8 14 7.10457 14 6C14 4.89543 13.1046 4 12 4C10.8954 4 10 4.89543 10 6C10 7.10457 10.8954 8 12 8ZM20 6C20 7.10457 19.1046 8 18 8C16.8954 8 16 7.10457 16 6C16 4.89543 16.8954 4 18 4C19.1046 4 20 4.89543 20 6Z" fill="white"/>
</svg>
