<svg width="480" height="112" viewBox="0 0 480 112" fill="none" xmlns="http://www.w3.org/2000/svg">
<mask id="mask0" mask-type="alpha" maskUnits="userSpaceOnUse" x="0" y="0" width="480" height="112">
<rect width="480" height="112" fill="#C4C4C4"/>
</mask>
<g mask="url(#mask0)">
<rect width="480" height="112" fill="url(#paint0_radial)"/>
<path fill-rule="evenodd" clip-rule="evenodd" d="M7.79121 16.77C6.77742 18.6345 5.18778 20.1405 3.26105 21.0493L44.593 113.882L42.9157 114.629L1.53076 21.677C0.722461 21.8878 -0.125666 22 -1 22C-6.52285 22 -11 17.5228 -11 12C-11 6.47715 -6.52285 2 -1 2C4.52285 2 9 6.47715 9 12C9 13.0748 8.83045 14.1099 8.51663 15.0802L174.265 75.4078L173.637 77.133L7.79121 16.77Z" fill="white" fill-opacity="0.6"/>
</g>
<defs>
<radialGradient id="paint0_radial" cx="0" cy="0" r="1" gradientUnits="userSpaceOnUse" gradientTransform="translate(480 112) rotate(-167.508) scale(850.664 1564.48)">
<stop/>
<stop offset="1" stop-color="#323232" stop-opacity="0"/>
</radialGradient>
</defs>
</svg>
