<svg height="32" viewBox="0 0 258 32" width="258" xmlns="http://www.w3.org/2000/svg"><g fill="none"><path d="m30.0770053 4.59197587v-4.59197587h-3.4573136-5.1129286-6.4763762-6.46014469-5.11292859-3.45731362v4.59197587h3.45731362v22.08675713h-3.45731362v4.5919759h3.45731362 5.11292859 6.46014469 6.4601447 5.1129286 3.4573136v-4.5919759h-3.4573136v-22.08675713zm-8.5702422 8.11680243h-4.1552689v-3.52482657h-4.6097515v3.52482657 5.8531523 3.5248266h4.6097515v-3.5248266h4.1552689v8.1168024h-6.4763762-6.46014469v-8.1168024-5.8531523-8.11680243h6.46014469 6.4601447v8.11680243z" fill="#fff"/><path d="m30.0770053 4.59197587v-4.59197587h-3.4573136-5.1129286-6.4763762-6.46014469-5.11292859-3.45731362v4.59197587h3.45731362v22.08675713h-3.45731362v4.5919759h3.45731362 5.11292859 6.46014469 6.4601447 5.1129286 3.4573136v-4.5919759h-3.4573136v-22.08675713zm-17.3352626 4.59197586v3.52482657 5.8531523 3.5248266h4.6097515v-3.5248266h4.1552689v8.1168024h-6.4763762-6.46014469v-8.1168024-5.8531523-8.11680243h6.46014469 6.4601447v8.11680243h-4.1552689v-3.52482657zm-4.17150049 21.76337857h-5.11292859-3.13268323v-3.9452187h3.13268323.32463039v-.3233786-22.08675713-.32337858h-.32463039-3.13268323v-3.94521871h3.13268323 5.11292859 6.29782949v3.94521871h-6.29782949-.32463038v.32337858 8.11680243 5.8531523 8.1168024.3233786h.32463038 6.29782949v3.9452187zm18.03321799-3.9452187h3.1326832v3.9452187h-3.1326832-5.1129286-6.2978295v-3.9452187h6.2978295.3246304v-.3233786-8.1168024-.3233786h-.3246304-4.1552689-.3246304v.3233786 3.201448h-3.9442592v-3.201448-5.8531523-3.20144798h3.9604907v3.20144798.3233786h.3246304 4.1552689.3246304v-.3233786-8.11680243-.32337858h-.3246304-6.314061v-3.94521871h6.2978295 5.1129286 3.1326832v3.94521871h-3.1326832-.3246304v.32337858 22.08675713.3233786z" fill="#f9ae06"/><path d="m80.3402815 7.59437512c1.1356803 0 2.3322007.24147356 3.569281.70429788 1.2168004.44270153 2.2510807 1.187245 3.1028409 2.1933848v-1.20736776h1.2979204v3.84345416h-1.2979204c-.28392-1.3683502-1.0951203-2.4147356-2.4133207-3.15927908-1.3182003-.76466627-2.7580808-1.1469994-4.3196412-1.1469994-2.2105207 0-4.0357212.66405228-5.4350416 2.01227968-1.4196004 1.3683501-2.1294006 3.0989107-2.1294006 5.2319271 0 2.0927708.7300802 3.8233313 2.1699606 5.2118043 1.4196004 1.3683502 3.2650809 2.0324025 5.5161616 2.0324025 1.7035205 0 3.1636809-.3823332 4.3804813-1.1469994 1.2370804-.8049119 2.2308006-2.0927709 2.9406009-3.8836998l1.2776403.6640523c-.8720402 1.9720341-2.0280006 3.4007526-3.508441 4.2660329-1.5210004.885403-3.2245209 1.3079818-5.1105615 1.3079818-2.7378008 0-4.9483214-.7847891-6.6315619-2.3342444-1.7035205-1.589701-2.5755608-3.6422262-2.5755608-6.137453s.8517603-4.5276292 2.5755608-6.09720737c1.7035205-1.56957814 3.8937611-2.35436721 6.5910019-2.35436721zm35.5508505 0c2.676961 0 4.887481.80491187 6.631562 2.3946128 1.76436 1.58970088 2.656681 3.62210338 2.656681 6.05696178s-.892321 4.447138-2.656681 6.036839c-1.744081 1.6299465-3.954601 2.4348584-6.631562 2.4348584s-4.867202-.8049119-6.631562-2.4147356c-1.764361-1.589701-2.656681-3.6221034-2.656681-6.0569618s.89232-4.4471381 2.656681-6.036839c1.7238-1.60982371 3.934321-2.41473558 6.631562-2.41473558zm44.109013-1.00613983c1.19652 0 2.453881.24147356 3.772081.74454348 1.27764.48294712 2.372761 1.24761339 3.285361 2.3342444v-1.28785898h1.37904v4.06480491h-1.37904c-.3042-1.4488414-1.15596-2.55559516-2.555281-3.36050703-1.39932-.80491186-2.920321-1.22749059-4.583281-1.22749059-2.352481 0-4.258801.70429788-5.759522 2.13301644-1.50072 1.44884138-2.271361 3.28001588-2.271361 5.53376908 0 2.2135076.770641 4.0648049 2.291641 5.5136462 1.500721 1.4488414 3.447601 2.1531393 5.840642 2.1531393 1.80492 0 3.366481-.4024559 4.644121-1.2274906 1.318201-.8451575 2.352481-2.2336304 3.123121-4.1251733l1.338481.7042979c-.872041 2.1330164-2.129401 3.662349-3.690962 4.5879976-1.60212.9256486-3.407041 1.388473-5.414761 1.388473-2.900041 0-5.232242-.8250347-7.016882-2.475104-1.804921-1.6903149-2.717521-3.863577-2.717521-6.4996633 0-2.6562092.9126-4.8093484 2.717521-6.45941773 1.80492-1.67019212 4.116841-2.49522678 6.996602-2.49522678zm-24.477967 1.24761339c1.4196 0 2.61612.38233314 3.569281 1.12687661.95316.74454348 1.43988 1.69031491 1.43988 2.83731431 0 1.0665082-.34476 1.9720341-1.03428 2.676332-.66924.7244206-1.723801 1.2073678-3.183961 1.4689641l3.650401 7.1838384h2.372761v1.1067538l-3.427321.0603684-4.137122-8.210101h-4.035721v8.210101h-1.54128v-15.33357101h-2.737801v-1.12687661zm-67.8569002 2.57571792v3.4007527h-1.0545603v-2.4549812h-8.1120024v5.3727867h6.4693219v.9256486h-6.4693219v5.6947515h9.1868427v.9457714h-10.4644831v-12.9389582h-2.0077206v-.9457715zm-28.7773285-2.57571792v7.30457512h10.038603v-6.17769851h-2.4133207v-1.12687661h6.1651218v1.12687661h-2.2308007v15.33357101h-3.9140411v-1.1268766h2.3727607v-6.922242h-9.9980429v8.0491186h-3.7923612v-1.1268766h2.2510807v-14.20669441h-2.2713607v-1.12687661zm66.0114197 0v3.28001582h-1.277641v-2.15313921h-5.2728012v15.31344821h-4.0762812v-1.1067538h2.5350007v-14.20669441h-5.2728015v4.08492771h-1.2979204v-5.21180432zm78.767543-1.04638542v1.187245h-2.433601l5.901482 15.03172904h4.948321v-15.03172904h-2.656681v-1.187245h4.319642v1.187245h-.06084v15.03172904h7.990322v-4.4672608h1.602121l-.00009 4.4870588 2.02809.0003248 5.840642-15.07197464.42588-1.1671222h5.536442v1.187245h-2.433601l5.901482 15.03172904h2.4336v1.1671222l-6.489602.0402456v-1.187245h2.433601l-2.129401-5.4331551h-7.848362l-2.06856 5.4331551h.02028v1.187245h-4.116842l-.000649-.0395698-13.384155.019447-.000845-.019447-6.367076.0395698v-1.187245h2.4336l-2.1294-5.4331551h-7.848363l-2.06856 5.4331551h.02028v1.187245h-4.116841v-1.187245h2.49444l5.840642-15.07197464.42588-1.1671222zm68.12054 0v1.187245h-2.433601l5.901482 15.03172904h2.4336v1.1671222l-6.489601.0402456v-1.187245h2.4336l-2.1294-5.4331551h-7.848363l-2.06856 5.4331551h.02028v1.187245h-4.116841v-1.187245h2.49444l5.840642-15.07197464.42588-1.1671222zm-14.784125 0v1.1671222l-11.944923 15.07197464h10.849803v-3.3202614h1.37904v4.4873836h-14.196004v-1.187245l11.924644-15.03172904h-11.295964v-1.187245zm-121.112195 2.01227966c-2.251081 0-4.096561.68417508-5.536442 2.03240248-1.46016 1.3683501-2.19024 3.1190334-2.19024 5.2118043 0 2.0927708.73008 3.8233313 2.19024 5.1715587 1.480441 1.3683502 3.325921 2.0726481 5.536442 2.0726481 2.251081 0 4.096561-.6841751 5.536442-2.0324025 1.46016-1.3683502 2.16996-3.1190335 2.16996-5.2118043h.04056c0-2.0726481-.73008-3.8032086-2.16996-5.1715587-1.439881-1.3683502-3.305641-2.07264808-5.577002-2.07264808zm97.080388-1.40859576-3.467881 9.03513564h6.895202zm-33.462009 0-3.467881 9.03513564h6.895202zm67.938019 0-3.467881 9.03513564h6.895202zm-112.229552 1.56957813h-4.481882v6.01671621h3.995161c1.358761 0 2.393041-.2615964 3.143401-.7847891.750361-.5030699 1.135681-1.2677362 1.135681-2.273876-.02028-.4427015-.12168-.8451575-.28392-1.2073678-.18252-.3622103-.425881-.6640523-.750361-.94577144-.68952-.54331551-1.60212-.80491187-2.75808-.80491187z" fill="#fff"/></g></svg>