<svg width="456" height="252" viewBox="0 0 456 252" fill="none" xmlns="http://www.w3.org/2000/svg">
<path d="M455.5 0.5V251.5H0.5V0.5H455.5Z" fill="#DADBDD" stroke="#979797"/>
<path fill-rule="evenodd" clip-rule="evenodd" d="M241.827 110.097C242.386 110.097 242.854 110.363 243.251 110.877C243.638 111.397 243.836 112.01 243.836 112.73V139.417C243.836 140.164 243.638 140.783 243.251 141.317C242.854 141.831 242.386 142.097 241.827 142.097H213.846C213.287 142.097 212.81 141.89 212.422 141.517C212.026 141.124 211.836 140.57 211.836 139.863V112.73C211.836 112.01 212.026 111.397 212.422 110.877C212.81 110.363 213.287 110.097 213.846 110.097H241.827ZM239.817 136.737H215.829V115.411H239.817V136.737ZM234.843 123.417C235.374 123.417 235.834 123.164 236.231 122.637C236.618 122.117 236.817 121.483 236.817 120.737C236.817 120.017 236.618 119.403 236.231 118.87C235.834 118.357 235.374 118.09 234.843 118.09C234.275 118.09 233.798 118.357 233.41 118.87C233.022 119.403 232.834 120.017 232.834 120.737C232.834 121.483 233.022 122.117 233.41 122.637C233.798 123.164 234.275 123.417 234.843 123.417ZM236.068 129.837C236.987 132.051 237.447 133.25 237.447 133.457C237.447 133.884 237.231 134.09 236.817 134.09H217.838C217.991 133.464 218.189 132.804 218.442 132.117C218.694 131.444 218.992 130.677 219.334 129.823C219.676 128.971 219.92 128.331 220.082 127.897C221.082 125.23 221.839 123.25 222.362 121.937L223.443 119.09C223.623 118.75 223.822 118.57 224.038 118.57C224.236 118.57 224.407 118.691 224.552 118.93L230.193 127.73C230.346 128.03 230.571 128.177 230.878 128.177C231.256 128.177 231.743 127.717 232.32 126.783C232.897 125.843 233.347 125.377 233.671 125.377C233.906 125.377 234.131 125.557 234.329 125.89C234.564 126.323 235.149 127.637 236.068 129.837Z" fill="#ACAFB1"/>
</svg>
